<?xml version="1.0" encoding="UTF-8" standalone="no"?>
<!-- Created with Inkscape (http://www.inkscape.org/) -->

<svg
   width="12.0925mm"
   height="13.69069mm"
   viewBox="0 0 12.092501 13.690691"
   version="1.1"
   id="svg5"
   inkscape:version="1.1.2 (b8e25be833, 2022-02-05)"
   sodipodi:docname="MangoIcon.svg"
   inkscape:export-filename="C:\Users\nicop\Desktop\MANGO Icon\MangoIcon.png"
   inkscape:export-xdpi="482.37161"
   inkscape:export-ydpi="482.37161"
   xmlns:inkscape="http://www.inkscape.org/namespaces/inkscape"
   xmlns:sodipodi="http://sodipodi.sourceforge.net/DTD/sodipodi-0.dtd"
   xmlns="http://www.w3.org/2000/svg"
   xmlns:svg="http://www.w3.org/2000/svg">
  <sodipodi:namedview
     id="namedview7"
     pagecolor="#ffffff"
     bordercolor="#666666"
     borderopacity="1.0"
     inkscape:pageshadow="2"
     inkscape:pageopacity="0.0"
     inkscape:pagecheckerboard="0"
     inkscape:document-units="mm"
     showgrid="false"
     inkscape:zoom="8"
     inkscape:cx="47.9375"
     inkscape:cy="24.875"
     inkscape:window-width="1920"
     inkscape:window-height="1009"
     inkscape:window-x="-8"
     inkscape:window-y="-8"
     inkscape:window-maximized="1"
     inkscape:current-layer="layer1"
     fit-margin-top="1"
     lock-margins="true"
     fit-margin-left="1"
     fit-margin-right="1"
     fit-margin-bottom="1" />
  <defs
     id="defs2">
    <marker
       style="overflow:visible"
       id="Arrow1Lstart"
       refX="0.0"
       refY="0.0"
       orient="auto"
       inkscape:stockid="Arrow1Lstart"
       inkscape:isstock="true">
      <path
         transform="scale(0.8) translate(12.5,0)"
         style="fill-rule:evenodd;fill:context-stroke;stroke:context-stroke;stroke-width:1.0pt"
         d="M 0.0,0.0 L 5.0,-5.0 L -12.5,0.0 L 5.0,5.0 L 0.0,0.0 z "
         id="path5633" />
    </marker>
  </defs>
  <g
     inkscape:label="Ebene 1"
     inkscape:groupmode="layer"
     id="layer1"
     transform="translate(0.24536799,0.21223154)">
    <g
       aria-label="MANGO"
       id="text47117"
       style="font-size:7.05556px;font-family:Bungee;-inkscape-font-specification:Bungee;display:none;fill:#f76f00;stroke-width:0.264583"
       inkscape:label="MANGO">
      <path
         d="m 14.391251,9.3712893 h -1.051278 q -0.134056,0 -0.197556,-0.056445 -0.05644,-0.0635 -0.05644,-0.1975557 v -4.572003 q 0,-0.1340556 0.05644,-0.1905001 0.0635,-0.0635 0.197556,-0.0635 h 1.135945 q 0.112889,0 0.183445,0.049389 0.07761,0.049389 0.141111,0.1622779 l 0.635,1.1500563 q 0.03528,0.0635 0.05645,0.091722 0.02822,0.028222 0.07056,0.028222 h 0.0635 q 0.04233,0 0.0635,-0.028222 0.02822,-0.028222 0.0635,-0.091722 l 0.627944,-1.1500563 q 0.0635,-0.112889 0.134056,-0.1622779 0.07761,-0.049389 0.1905,-0.049389 h 1.143001 q 0.134056,0 0.1905,0.0635 0.0635,0.056445 0.0635,0.1905001 v 4.572003 q 0,0.1340556 -0.0635,0.1975557 -0.05644,0.056445 -0.1905,0.056445 H 16.76192 q -0.134056,0 -0.197556,-0.056445 -0.05644,-0.0635 -0.05644,-0.1975557 V 6.6337319 L 16.091641,7.402788 q -0.0635,0.1199445 -0.155222,0.176389 -0.08467,0.049389 -0.218722,0.049389 h -0.282223 q -0.134055,0 -0.225778,-0.049389 Q 15.12503,7.5227325 15.06153,7.402788 L 14.645252,6.6337319 v 2.4835572 q 0,0.1340556 -0.0635,0.1975557 -0.05645,0.056445 -0.190501,0.056445 z"
         id="path56819" />
      <path
         d="M 20.917651,5.7729536 20.58604,6.8453987 h 1.107723 L 21.362151,5.7729536 q -0.02822,-0.0635 -0.0635,-0.091722 -0.02822,-0.028222 -0.07055,-0.028222 h -0.176389 q -0.04233,0 -0.07761,0.028222 -0.02822,0.028222 -0.05645,0.091722 z m -0.402167,3.3443355 q 0,0.1340556 -0.0635,0.1975557 -0.05644,0.056445 -0.1905,0.056445 h -1.037167 q -0.134056,0 -0.197556,-0.056445 -0.05644,-0.0635 -0.05644,-0.1975557 V 7.2546212 q 0,-0.2116668 0.0635,-0.4868336 0.07056,-0.2751669 0.211666,-0.642056 l 0.613834,-1.6016121 q 0.04233,-0.1199446 0.127,-0.176389 0.09172,-0.056444 0.232834,-0.056444 H 22.1171 q 0.134056,0 0.218723,0.056444 0.09172,0.056444 0.134055,0.176389 l 0.613834,1.6016121 q 0.141111,0.3668891 0.204611,0.642056 0.07056,0.2751668 0.07056,0.4868336 v 1.8626679 q 0,0.1340556 -0.0635,0.1975557 -0.05645,0.056445 -0.1905,0.056445 h -1.06539 q -0.141111,0 -0.211667,-0.056445 -0.0635,-0.0635 -0.0635,-0.1975557 V 8.1295107 h -1.248834 z"
         id="path56821" />
      <path
         d="m 25.53904,9.3712893 h -1.058334 q -0.134056,0 -0.197556,-0.056445 -0.05644,-0.0635 -0.05644,-0.1975557 v -4.572003 q 0,-0.1340556 0.05644,-0.1905001 0.0635,-0.0635 0.197556,-0.0635 h 0.733778 q 0.134056,0 0.225778,0.042333 0.09878,0.042333 0.1905,0.1481668 l 1.368779,1.5663343 V 4.5452861 q 0,-0.1340556 0.05644,-0.1905001 0.0635,-0.0635 0.197556,-0.0635 h 1.058334 q 0.134056,0 0.1905,0.0635 0.0635,0.056445 0.0635,0.1905001 v 4.572003 q 0,0.1340556 -0.0635,0.1975557 -0.05644,0.056445 -0.1905,0.056445 h -1.058334 q -0.134056,0 -0.197556,-0.056445 -0.05644,-0.0635 -0.05644,-0.1975557 V 8.2494552 L 25.79304,6.7889543 v 2.3283348 q 0,0.1340556 -0.0635,0.1975557 -0.05645,0.056445 -0.1905,0.056445 z"
         id="path56823" />
      <path
         d="m 33.420102,9.3712893 h -2.222501 q -0.881945,0 -1.312334,-0.3527781 Q 29.461933,8.6657332 29.461933,7.931955 V 5.7306202 q 0,-0.7337782 0.423334,-1.0865562 0.430389,-0.352778 1.312334,-0.352778 h 1.76389 q 0.134055,0 0.1905,0.0635 0.0635,0.056445 0.0635,0.1905001 v 0.8537228 q 0,0.1340557 -0.0635,0.1975557 -0.05645,0.056445 -0.1905,0.056445 h -1.467557 q -0.218722,0 -0.324555,0.091722 -0.105834,0.084667 -0.105834,0.2610557 v 1.6862788 q 0,0.176389 0.07761,0.2610558 0.08467,0.084667 0.246945,0.084667 h 0.68439 V 6.937121 q 0,-0.1340556 0.05644,-0.1905001 0.0635,-0.0635 0.197555,-0.0635 h 1.093612 q 0.134056,0 0.1905,0.0635 0.0635,0.056445 0.0635,0.1905001 v 2.1801681 q 0,0.1340556 -0.0635,0.1975557 -0.05644,0.056445 -0.1905,0.056445 z"
         id="path56825" />
      <path
         d="m 38.838774,8.0377884 q 0,0.3245558 -0.09878,0.592667 -0.09172,0.2610558 -0.338666,0.4515559 -0.239889,0.1834446 -0.670279,0.289278 -0.423333,0.1058334 -1.0795,0.1058334 -0.656167,0 -1.086557,-0.1058334 Q 35.134603,9.2654559 34.887659,9.0820113 34.64777,8.8915112 34.548992,8.6304554 34.457272,8.3623442 34.457272,8.0377884 v -2.405946 q 0,-0.3245558 0.09172,-0.5856115 0.09878,-0.2681113 0.338667,-0.4586114 0.246944,-0.1905001 0.677333,-0.2963335 0.43039,-0.1058334 1.086557,-0.1058334 0.656167,0 1.0795,0.1058334 0.43039,0.1058334 0.670279,0.2963335 0.246944,0.1905001 0.338666,0.4586114 0.09878,0.2610557 0.09878,0.5856115 z m -2.77989,-0.2540002 q 0,0.1411112 0.105833,0.2398891 0.105833,0.091722 0.486834,0.091722 0.381,0 0.486833,-0.091722 0.105834,-0.098778 0.105834,-0.2398891 V 5.8858426 q 0,-0.1340557 -0.105834,-0.225778 -0.105833,-0.098778 -0.486833,-0.098778 -0.381001,0 -0.486834,0.098778 -0.105833,0.091722 -0.105833,0.225778 z"
         id="path56827" />
    </g>
    <g
       id="g32174"
       transform="matrix(0.12502477,0,0,0.12502477,-0.45035672,0.61428172)"
       style="stroke-width:2.11625"
       inkscape:label="Hexagon">
      <g
         id="g32294"
         style="fill:#ffaa00;fill-opacity:1">
        <path
           style="display:inline;fill:#ffaa00;fill-opacity:1;stroke-width:2.11625"
           d="M 63.298,89.092 36.233,73.467 V 61.348 L 63.298,76.973 90.362,61.348 v 12.119 z"
           id="path32266" />
        <path
           id="path32262"
           style="display:inline;fill:#ffaa00;fill-opacity:1;stroke-width:1"
           d="M 22.861328,4.6582031 17.900391,7.5214844 28.859375,13.847656 22.867188,4.6621094 Z m 7.828125,11.9960939 v 13.017578 l 4.960938,-2.863281 v -3.466797 l -0.789063,-0.291016 z"
           transform="matrix(2.1162473,0,0,2.1162473,1.6395849,-6.6107961)" />
        <path
           style="display:inline;fill:#ffaa00;fill-opacity:1;stroke-width:2.11625"
           d="M 9.638,42.012 36.703,26.386 47.198,32.446 20.134,48.072 V 79.324 L 9.638,73.264 Z"
           id="path32161" />
      </g>
      <g
         id="g32289"
         style="display:inline;fill:#f76f00;fill-opacity:1">
        <path
           style="display:inline;fill:#f76f00;fill-opacity:1;stroke-width:2.11625"
           d="M 36.703,11.011 9.638,26.636 V 38.757 L 36.703,23.131 63.767,38.757 V 26.636 Z"
           id="path32159" />
        <path
           id="path32258"
           style="display:inline;fill:#f76f00;fill-opacity:1;stroke-width:1"
           d="m 36.964844,23.826172 v 3.884766 l -12.789063,7.382812 4.958985,2.865234 12.789062,-7.384765 v -4.921875 z"
           transform="matrix(2.1162473,0,0,2.1162473,1.6395849,-6.6107961)" />
        <path
           style="display:inline;fill:#f76f00;fill-opacity:1;stroke-width:2.11625"
           d="m 23.01,81.127 10e-4,-31.251 10.496,-6.06 v 31.252 l 27.064,15.625 -10.496,6.061 z"
           id="path32163" />
      </g>
    </g>
    <path
       id="rect57622"
       style="display:inline;fill:#259482;fill-opacity:1;stroke:none;stroke-width:0.7;stroke-linecap:butt;stroke-linejoin:miter;stroke-miterlimit:8;stroke-dasharray:none;stroke-opacity:1;paint-order:stroke fill markers"
       d="M 11.779555,6.5457179 9.2090736,5.5988064 6.1013237,0.83541969 10.847132,3.9699465 Z"
       sodipodi:nodetypes="ccccc"
       inkscape:transform-center-x="1.905698"
       inkscape:transform-center-y="-0.27809428"
       inkscape:label="Leaf" />
  </g>
</svg>
